<svg width="227" height="192" viewBox="0 0 227 192" fill="none" xmlns="http://www.w3.org/2000/svg">
<g id="Standard Collection 5">
<g id="Group">
<path id="Vector" d="M192.988 38.5219C183.996 38.5284 175.374 40.8086 169.017 44.8624C162.659 48.9161 159.082 54.4123 159.074 60.1448V114.003C159.169 117.857 158.061 121.685 155.813 125.263C153.566 128.841 150.225 132.098 145.983 134.845C141.741 137.592 136.685 139.774 131.108 141.263C125.532 142.752 119.546 143.518 113.5 143.518C107.454 143.518 101.468 142.752 95.8913 141.263C90.3146 139.774 85.2583 137.592 81.017 134.845C76.7755 132.098 73.4339 128.841 71.1865 125.263C68.939 121.685 67.8308 117.857 67.9262 114.003V60.1448C67.9262 54.4107 64.353 48.9113 57.9926 44.8567C51.6322 40.802 43.0056 38.5241 34.0107 38.5241C25.0158 38.5241 16.3892 40.802 10.0288 44.8567C3.66841 48.9113 0.0952148 54.4107 0.0952148 60.1448V119.706C0.0952144 129.199 3.0285 138.601 8.72761 147.372C14.4267 156.143 22.7801 164.112 33.3107 170.826C43.8412 177.539 56.3429 182.864 70.1018 186.497C83.8607 190.13 98.6074 192 113.5 192C128.392 192 143.139 190.13 156.898 186.497C170.657 182.864 183.158 177.539 193.688 170.826C204.22 164.112 212.573 156.143 218.271 147.372C223.971 138.601 226.905 129.199 226.905 119.706V60.1448C226.895 54.4122 223.319 48.9161 216.961 44.8624C210.603 40.8086 201.981 38.5284 192.988 38.5219ZM212.066 119.701C212.066 136.367 201.681 152.348 183.197 164.132C164.712 175.916 139.641 182.536 113.5 182.536C87.3583 182.536 62.2877 175.916 43.8029 164.132C25.3181 152.348 14.9334 136.367 14.9334 119.701V60.1448C14.9768 56.9376 17.0057 53.8711 20.5788 51.6129C24.1518 49.3547 28.9794 48.0877 34.0107 48.0877C39.042 48.0877 43.8696 49.3547 47.4426 51.6129C51.0155 53.8711 53.0446 56.9376 53.088 60.1448V114.003C53.088 124.217 59.4528 134.013 70.7822 141.236C82.1116 148.458 97.4777 152.515 113.5 152.515C129.522 152.515 144.889 148.458 156.218 141.236C167.546 134.013 173.912 124.217 173.912 114.003V60.1448C173.912 56.9194 175.921 53.826 179.499 51.5453C183.077 49.2645 187.929 47.9833 192.988 47.9833C198.049 47.9833 202.901 49.2645 206.479 51.5453C210.056 53.826 212.066 56.9194 212.066 60.1448V119.701Z" fill="#CBC7BE"/>
<path id="Vector_2" d="M106.081 49.5453V111.898C106.081 113.152 106.863 114.355 108.254 115.243C109.645 116.13 111.532 116.627 113.5 116.627C115.468 116.627 117.355 116.13 118.746 115.243C120.138 114.355 120.919 113.152 120.919 111.898V49.5453C130.498 48.3688 139.045 44.9584 144.892 39.9803C150.737 35.002 153.464 28.8135 152.537 22.6229C151.609 16.4322 147.097 10.6842 139.878 6.50105C132.66 2.31789 123.255 0 113.5 0C103.745 0 94.3401 2.31789 87.122 6.50105C79.9038 10.6842 75.3906 16.4322 74.4637 22.6229C73.5366 28.8135 76.2625 35.002 82.1088 39.9803C87.9551 44.9584 96.5021 48.3688 106.081 49.5453ZM113.5 9.46931C118.321 9.46931 123.035 10.3807 127.043 12.0884C131.052 13.796 134.177 16.2231 136.022 19.0627C137.867 21.9023 138.35 25.027 137.409 28.0416C136.468 31.0561 134.146 33.825 130.737 35.9984C127.327 38.1716 122.984 39.6516 118.255 40.2511C113.526 40.8507 108.625 40.5428 104.17 39.3665C99.7161 38.1901 95.909 36.1982 93.2305 33.6425C90.5521 31.0868 89.1227 28.0822 89.1229 25.0086C89.1305 20.8886 91.7012 16.9388 96.2712 14.0256C100.841 11.1125 107.037 9.47384 113.5 9.46931Z" fill="#CBC7BE"/>
</g>
</g>
</svg>
